# xmcd
#
# Track frame offsets: 
#        150
#        31855
#        64664
#        93852
#        138783
#        180657
#        214727
#
# Disc length: 3148 seconds
#
# Revision: 0
# Processed by: cddbd v1.5.2PL0 Copyright (c) Steve Scherf et al.
# Submitted via: ExactAudioCopyFreeDBPlugin 1.0
#
DISCID=540c4a07
DTITLE=Melba Moore - Dancin' With Melba
DYEAR=1979
DGENRE=Soul
TTITLE0=Standing Right Here
TTITLE1=Free
TTITLE2=Play Boy Scout
TTITLE3=Promised Land
TTITLE4=Make Me Believe In You
TTITLE5=Good Love Makes Everything Alright
TTITLE6=This Is It (12" Version)
EXTD=
EXTT0=
EXTT1=
EXTT2=
EXTT3=
EXTT4=
EXTT5=
EXTT6=
PLAYORDER=
